<?xml version="1.0" encoding="UTF-8"?>
<svg xmlns="http://www.w3.org/2000/svg" version="1.1" viewBox="0 0 800 800">
  <defs>
    <style>
      .cls-1 {
        fill: #fff;
      }
    </style>
  </defs>
  <!-- Generator: Adobe Illustrator 28.7.1, SVG Export Plug-In . SVG Version: 1.2.0 Build 142)  -->
  <g>
    <g id="Capa_1">
      <g>
        <path class="cls-1" d="M13.3,336.2h55.2c7.4,0,13.3-6,13.3-13.3s-6-13.3-13.3-13.3H13.3c-7.4,0-13.3,6-13.3,13.3s6,13.3,13.3,13.3Z"/>
        <path class="cls-1" d="M280.2,124.5c7.4,0,13.3-6,13.3-13.3v-55.2c0-7.4-6-13.3-13.3-13.3s-13.3,6-13.3,13.3v55.2c0,7.4,6,13.3,13.3,13.3Z"/>
        <path class="cls-1" d="M121.1,182.6c2.6,2.6,6,3.9,9.4,3.9s6.8-1.3,9.4-3.9c5.2-5.2,5.2-13.7,0-18.9l-52.8-52.8c-5.2-5.2-13.7-5.2-18.9,0s-5.2,13.7,0,18.9l52.8,52.8Z"/>
        <path class="cls-1" d="M185.2,133.2c2.2,5.1,7.1,8.1,12.3,8.1s3.5-.3,5.2-1.1c6.8-2.9,10-10.7,7.1-17.5l-10.8-25.4c-2.9-6.8-10.7-9.9-17.5-7.1-6.8,2.9-10,10.7-7.1,17.5l10.8,25.4Z"/>
        <path class="cls-1" d="M354.6,138.9c1.6.7,3.3,1,5,1,5.3,0,10.3-3.2,12.4-8.4l10.3-25.6c2.7-6.8-.5-14.6-7.4-17.4-6.8-2.8-14.6.5-17.4,7.4l-10.3,25.6c-2.7,6.8.6,14.6,7.4,17.4Z"/>
        <path class="cls-1" d="M54.8,404.1c-6.8,2.9-10,10.7-7.1,17.5,2.2,5.1,7.1,8.1,12.3,8.1s3.5-.3,5.2-1.1l25.4-10.8c6.8-2.9,10-10.7,7.1-17.5-2.9-6.8-10.8-9.9-17.5-7.1l-25.4,10.8Z"/>
        <path class="cls-1" d="M53.4,245.6l25.6,10.3c1.6.7,3.3,1,5,1,5.3,0,10.3-3.1,12.4-8.3,2.8-6.8-.5-14.6-7.4-17.4l-25.6-10.3c-6.8-2.7-14.6.5-17.4,7.4-2.8,6.8.5,14.6,7.4,17.4Z"/>
        <path class="cls-1" d="M499.2,413.8c14.3-3.4,23.2-17.7,19.9-32.1-7.3-31.2-26.4-57.7-53.7-74.6-7.8-4.8-15.9-8.5-24.4-11.4,0-.7,0-1.5.2-2.2.1-1,.3-1.9.5-2.9.5-2.9,1.2-5.7,1.8-8.5,12.7-48.8,56.9-85,109.6-85s102.7,40.9,111.7,94.5c-59.1,7.4-105,57.9-105,119.1s12,26.7,26.7,26.7,26.7-12,26.7-26.7c0-36.8,29.9-66.7,66.7-66.7s66.7,29.9,66.7,66.7,12,26.7,26.7,26.7,26.7-12,26.7-26.7c0-52.4-33.8-97-80.7-113.3-6.8-85.8-78.6-153.6-166.1-153.6s-89.3,19.5-119.5,50.8c-36.8-38.9-87.7-61.3-142.7-61.3-108.9,0-197.4,88.6-197.4,197.4s14,83.7,39,117.1c-45.5,8.8-85.9,36-109.8,77.3-45.4,78.6-20.3,181.1,56,228.5,4.4,2.7,9.3,4,14.1,4,8.9,0,17.6-4.5,22.7-12.6,7.8-12.5,4-29-8.6-36.8-52.1-32.4-69.1-102.6-38-156.5,20.9-36.1,60.9-56.4,102.9-53.8,6.5,22.3,19.6,42.9,38.8,58.8,5,4.1,11,6.1,17,6.1s15.3-3.3,20.6-9.7c9.4-11.4,7.7-28.2-3.6-37.6-13.3-11-21.1-26.1-23.4-42-.4-3.2-.6-6.4-.6-9.6,0-.4,0-.9,0-1.3,0-2.5.2-5,.5-7.5,1.6-11.9,6.2-23.5,14.4-33.5,12.1-14.6,29.3-23,47.3-24.1-1.3,12.9-.6,26.1,2.5,39.4,2.9,12.3,13.9,20.6,26,20.6s4.1-.2,6.1-.7c14.3-3.4,23.2-17.7,19.9-32.1-4.1-17.3-1.2-35.3,8.2-50.4,9.4-15.2,24.1-25.8,41.4-29.8,17.4-4.1,35.3-1.2,50.4,8.2,15.2,9.4,25.8,24.1,29.8,41.4,3.3,14.4,17.7,23.2,32.1,19.9Z"/>
        <path class="cls-1" d="M731,627.3c-10.9-55.1-59.6-96.8-117.8-96.8s-120.1,53.9-120.1,120.1,12,26.7,26.7,26.7,26.7-12,26.7-26.7c0-36.8,29.9-66.7,66.7-66.7s53.9,19,62.9,45.3c-36.5,12.7-62.9,47.4-62.9,88.2s12,26.7,26.7,26.7,26.7-12,26.7-26.7c0-22.1,18-40,40-40s40,18,40,40,12,26.7,26.7,26.7,26.7-12,26.7-26.7c0-43.1-29.3-79.3-69-90.1Z"/>
      </g>
    </g>
  </g>
</svg>